<svg width="1024" height="1024" viewBox="0 0 1024 1024" fill="none" xmlns="http://www.w3.org/2000/svg">
    <rect width="1024" height="1024" fill="#0A1128"/>

    <g opacity="0.2">
        <rect x="112" y="112" width="800" height="800" rx="100" stroke="#141E3A" stroke-width="8"/>
        <rect x="212" y="212" width="600" height="600" rx="80" stroke="#141E3A" stroke-width="8"/>
        <rect x="312" y="312" width="400" height="400" rx="60" stroke="#141E3A" stroke-width="8"/>
    </g>

    <g transform="translate(212, 212) scale(0.6)">
        <path d="M100 500 H900" stroke="#7DF9FF" stroke-width="20" stroke-linecap="round"/>

        <path d="M100 650 C200 650, 250 750, 350 650 C400 550, 450 100, 500 100 C550 100, 600 850, 700 650 C800 450, 850 650, 900 650" stroke="#7DF9FF" stroke-width="20" stroke-linecap="round" stroke-linejoin="round" fill="none"/>

        <path d="M750 150 A 100 100 0 1 1 650 250 A 130 130 0 0 0 750 150 Z" fill="#7DF9FF"/>
        <circle cx="850" cy="200" r="20" fill="#7DF9FF"/>
    </g>
</svg>
